<?xml version="1.0" encoding="UTF-8" standalone="no"?>
<svg width="167px" height="31px" viewBox="0 0 167 31" version="1.1" xmlns="http://www.w3.org/2000/svg" xmlns:xlink="http://www.w3.org/1999/xlink">
    <!-- Generator: Sketch 40.1 (33804) - http://www.bohemiancoding.com/sketch -->
    <title>sdi-logo-167x30</title>
    <desc>Created with Sketch.</desc>
    <defs></defs>
    <g id="Page-1" stroke="none" stroke-width="1" fill="none" fill-rule="evenodd">
        <g id="sdi-logo-167x30" transform="translate(0.000000, 0.804380)">
            <rect id="rect4312" fill="#FFFFFF" x="0" y="14.597266" width="29.7340248" height="0.654499564"></rect>
            <ellipse id="circle4314" fill="#FFF000" cx="6.5113133" cy="6.62524149" rx="6.08696521" ry="6.08696521"></ellipse>
            <ellipse id="circle4316" fill="#E32580" cx="23.1347965" cy="6.62524149" rx="6.08696521" ry="6.08696521"></ellipse>
            <circle id="circle4318" fill="#2580E3" cx="6.5113133" cy="23.2346809" r="6.08696074"></circle>
            <rect id="rect4320" fill="#FFFFFF" transform="translate(14.863482, 14.929444) rotate(90.000000) translate(-14.863482, -14.929444) " x="-0.0035304734" y="14.6021945" width="29.7340248" height="0.654499564"></rect>
            <path d="M17.6449066,26.1685851 C17.2651928,26.1032872 16.9416428,25.918117 16.7758864,25.6712553 C16.5973896,25.4054043 16.5512726,25.2385851 16.5151513,24.7281383 L16.4863002,24.3205532 L16.9276194,24.3205532 L17.3689385,24.3205532 L17.3898428,24.6460851 C17.4128534,25.0044574 17.4995343,25.1995532 17.7032151,25.3514043 C17.8202821,25.4386596 17.8813098,25.444117 18.7386491,25.444117 C19.5625098,25.444117 19.6662747,25.4358191 19.8230853,25.356 C20.11818,25.2060319 20.1742385,25.0865426 20.1908598,24.5720745 C20.2027321,24.2039681 20.1909396,24.0948511 20.125814,23.9712128 C19.981096,23.6964574 19.8851853,23.6590213 19.2061672,23.6122979 C17.666564,23.5063085 17.5091374,23.4867447 17.2460438,23.3686596 C16.942763,23.2325745 16.802663,23.095117 16.666913,22.8004468 C16.5752566,22.6015213 16.565414,22.5160532 16.565414,21.9192447 C16.565414,21.3166277 16.5747013,21.237766 16.6708002,21.0250851 C16.8088385,20.7195957 17.060063,20.5087021 17.4227598,20.3938723 C17.65263,20.3210745 17.8716013,20.2978404 18.504097,20.2790106 C20.3705757,20.2234468 20.8858034,20.5030532 20.9409747,21.6014681 L20.9604109,21.9886596 L20.525347,21.9758936 L20.0902832,21.9631277 L20.06823,21.6966383 C20.0430172,21.3916915 19.9525513,21.2274255 19.7483726,21.1158511 C19.6263109,21.0491489 19.487296,21.0378191 18.7904598,21.0378191 C18.0625066,21.0378191 17.9567885,21.0473936 17.8019311,21.1259681 C17.5377045,21.260234 17.4590438,21.3990319 17.4352864,21.7729468 C17.3975406,22.3669787 17.5535311,22.6476702 17.9679843,22.7314787 C18.093196,22.7566915 18.5712811,22.7981489 19.030396,22.8233617 C20.3723981,22.897117 20.7078332,23.0192234 20.9422704,23.5193298 C21.054346,23.7584043 21.0595194,23.8012021 21.0577481,24.4746064 C21.055514,25.3181489 20.9831789,25.5750957 20.6731417,25.8405 C20.3422481,26.1237128 20.0615566,26.1800426 18.9006109,26.1960957 C18.3432428,26.2037553 17.7781577,26.1913085 17.6448715,26.1683298 L17.6449066,26.1685851 Z M21.874763,23.2379681 L21.874763,20.3047979 L23.6482194,20.3210745 C25.3409311,20.3363936 25.4351055,20.3418191 25.7166523,20.4353617 C26.2569938,20.6150745 26.659096,21.0929681 26.7881119,21.708734 C26.9426726,22.4464149 26.9048279,24.401266 26.7247194,24.9832979 C26.5249353,25.6289043 26.1093619,25.9825851 25.4024087,26.1087128 C25.1645119,26.1511596 24.6122789,26.168617 23.4719757,26.1697021 L21.874763,26.1697021 L21.874763,23.2379681 Z M25.2252045,25.3073298 C25.5385002,25.2142979 25.7622779,24.9913085 25.8629343,24.6718404 C25.9208789,24.4879468 25.9440651,24.211117 25.9606194,23.5054468 C25.9970502,21.9524362 25.8831045,21.4761064 25.4177981,21.2362979 C25.2071311,21.1277234 25.1865364,21.1259362 23.9800289,21.1125638 L22.7559843,21.0988404 L22.7559843,23.238383 L22.7559843,25.3778936 L23.8715438,25.3778936 C24.7672417,25.3778936 25.0340311,25.3638511 25.2252045,25.3071702 L25.2252045,25.3073298 Z M27.7789417,23.2410638 L27.7789417,20.3110213 L28.2195523,20.3110213 L28.6601598,20.3110213 L28.6601598,23.2410638 L28.6601598,26.1711383 L28.2195523,26.1711383 L27.7789417,26.1711383 L27.7789417,23.2410638 Z" id="path4322" fill="#FFFFFF"></path>
            <path d="M42.996647,26.4735157 C40.7328475,26.242388 39.5583878,25.6059093 38.7896763,24.1935157 C38.3407538,23.3687072 38.0098904,21.7556965 38.003383,20.3602817 L38,19.6524412 L39.5598654,19.6524412 L41.1197308,19.6524412 L41.2004273,20.7766753 C41.3028577,22.2036221 41.7819811,23.1855157 42.5297565,23.5009306 C42.9411057,23.6744519 43.9619374,23.7329838 46.5774247,23.7329838 C50.4958701,23.7329838 51.0773218,23.6005689 51.6126917,22.5862817 C52.0267505,21.8018455 52.1100034,19.1809944 51.7507518,18.2403029 C51.2866347,17.0250157 50.8081208,16.8861859 46.0589281,16.5888029 C41.7627812,16.3198242 40.9160637,16.1403987 39.7518805,15.2524306 C39.4437851,15.0174412 38.9797893,14.3936008 38.7207691,13.8661114 C38.267436,12.9429253 38.2498287,12.813638 38.2498287,10.4087551 C38.2498287,8.1541274 38.2871689,7.82945718 38.6327068,7.07977633 C39.1164099,6.03031888 39.5547016,5.56101037 40.498274,5.08206357 C41.8025821,4.42002101 42.9999885,4.26111676 46.6607031,4.26418059 C51.6628043,4.26801037 53.0400471,4.72499974 54.0587979,6.71703165 C54.4550451,7.49182952 54.5633446,7.94610612 54.6230667,9.08393591 L54.6969717,10.492021 L53.0938458,10.492021 L51.4907104,10.492021 L51.4907104,9.60063803 C51.4907104,8.56244654 51.0231944,7.71995718 50.2353532,7.33838271 C49.0700562,6.77399974 43.9332045,6.83482952 42.7401258,7.42713803 C41.761862,7.91278697 41.4611357,8.44659548 41.3715446,9.85646782 C41.236341,11.9842976 41.7788343,13.1178668 43.1023263,13.4730157 C43.4563694,13.5680263 45.1325864,13.7240902 46.8272534,13.8198348 C50.7424148,14.041037 51.9789486,14.2269412 53.0099802,14.7494199 C54.0150779,15.2587178 54.720362,16.2800263 55.0013363,17.6329625 C55.2727744,18.9399412 55.1099199,22.4882391 54.7295152,23.5551859 C54.3404616,24.646388 53.2819482,25.6910263 52.2017104,26.0498455 C50.6575694,26.5627178 45.9793199,26.7780476 42.9965608,26.4735157 L42.996647,26.4735157 Z M62.3999545,26.4700051 C60.6624037,26.2328136 59.5231971,25.6019519 58.8788351,24.5201646 C58.128998,23.2612497 57.9111702,21.887888 57.921868,18.4865902 C57.939485,12.8696806 58.886201,11.418287 62.8249282,10.9694997 C64.6708168,10.7591806 67.6161782,10.9017763 68.8220069,11.2598934 C71.2627705,11.9847125 72.1295497,14.3269625 71.9240602,19.642388 C71.7075984,25.2417923 70.6693317,26.3822391 65.6284987,26.5574838 C64.494025,26.5968987 63.0411794,26.5575476 62.3999545,26.4700051 L62.3999545,26.4700051 Z M67.4690416,23.839771 C67.7837434,23.6894519 68.1796395,23.3766859 68.3488133,23.1447923 C68.8162718,22.5039731 69.0247837,20.6741965 68.9458202,17.9057072 C68.8275952,13.7605689 68.4173789,13.2978348 64.8609521,13.2978348 C62.5314688,13.2978348 61.9176269,13.5360476 61.3616017,14.6558774 C60.6897291,16.0090051 60.6736441,21.5456646 61.3376656,22.9013136 C61.7163501,23.6744199 62.3569973,24.0273668 63.6011428,24.1483561 C65.146736,24.2986434 66.7814511,24.1681434 67.4690544,23.839771 L67.4690416,23.839771 Z M89.632755,26.4679625 C88.4344774,26.2554412 87.5914715,25.679537 87.1531033,24.7739838 C86.8155345,24.0766434 86.7998261,23.8058455 86.7998261,18.6838242 L86.7998261,13.3234625 L85.717233,13.3234625 L84.6346463,13.3234625 L84.6346463,12.1575955 L84.6346463,10.9917125 L85.717233,10.9917125 L86.7998261,10.9917125 L86.7998261,9.24290399 L86.7998261,7.49409548 L88.2155166,7.49409548 L89.6312103,7.49409548 L89.6312103,9.24290399 L89.6312103,10.9917125 L92.6291449,10.9917125 L95.6270859,10.9917125 L95.6270859,12.1575955 L95.6270859,13.3234625 L92.6291449,13.3234625 L89.6312103,13.3234625 L89.6312103,18.1426434 C89.6312103,20.9317817 89.7009217,23.1451753 89.7966979,23.3971114 C89.9703684,23.8538774 90.8288721,24.3166434 91.4995733,24.3149838 C92.2249669,24.3117923 93.1332448,23.9643348 93.3756852,23.5943136 C93.5097336,23.3897072 93.6696871,22.6814199 93.7311262,22.0203348 L93.842847,20.8183242 L95.0927531,20.8183242 L96.3426593,20.8183242 L96.2394023,22.1573774 C96.18261,22.8938455 96.0431394,23.8068029 95.9294718,24.1862072 C95.6566772,25.0967072 94.7172729,26.0631221 93.8782883,26.2963561 C92.9094841,26.5656859 90.6896344,26.6553987 89.632755,26.4679625 L89.632755,26.4679625 Z M125.523169,26.4730689 C124.058828,26.2433774 123.123276,25.7010795 122.526716,24.7361646 C122.041962,23.9521114 122.025577,23.8598136 122.025577,21.9138987 C122.025577,20.0934731 122.065589,19.8230263 122.446236,19.0694519 C122.791365,18.3862178 123.030611,18.1548029 123.778651,17.7806646 C124.920931,17.2093561 126.906907,16.9188029 128.687654,17.0624838 C130.646888,17.2205582 131.664235,17.5516434 132.17249,18.1965157 L132.597933,18.7363242 L132.599528,16.7377178 C132.602081,13.4599625 132.117587,12.9578614 128.957503,12.9636061 C126.386821,12.9680742 125.664711,13.3189306 125.486276,14.649271 L125.395967,15.3220051 L123.951917,15.3220051 L122.507879,15.3220051 L122.615617,14.2810689 C122.858,11.9393614 123.736202,11.278404 127.034457,10.9552657 C130.765317,10.5897125 133.808271,11.255521 134.723356,12.6375636 C135.43893,13.7182817 135.486055,14.1596008 135.556928,20.4435157 L135.625021,26.4810476 L134.144301,26.4810476 L132.663581,26.4810476 L132.736344,25.4400795 L132.809096,24.3991434 L132.121863,25.174771 C131.655279,25.7013987 131.180799,26.0369199 130.644044,26.2198561 C129.679992,26.5483561 126.884541,26.6865795 125.523102,26.4730689 L125.523169,26.4730689 Z M131.559111,23.9286859 C132.389485,23.4887072 132.684903,22.9070902 132.684903,21.7121965 C132.684903,20.5484838 132.34984,19.9181646 131.504058,19.4906965 C130.880411,19.1755051 127.445685,19.0482604 126.492194,19.3050157 C125.263629,19.6358136 125.040672,19.9403455 124.967597,21.3873987 C124.840305,23.9081965 125.450177,24.3607497 128.854201,24.2714519 C130.496081,24.2283348 131.149829,24.1455157 131.559111,23.9286859 L131.559111,23.9286859 Z M157.754078,26.4601114 C155.430764,26.1911646 154.097264,25.1884306 153.481804,23.247654 C153.077364,21.972271 152.970826,16.6460902 153.317063,15.0123668 C153.932893,12.1066912 155.245269,11.1668934 159.050727,10.9065955 C162.324386,10.6826487 164.761738,11.3255742 165.735569,12.6699253 C166.455556,13.6638348 166.711547,14.6805795 166.844555,17.0746114 L166.960007,19.1527178 L161.432512,19.1527178 L155.905024,19.1527178 L156.011348,20.4435157 C156.230656,23.1059519 156.669312,23.8031965 158.344492,24.1522497 C159.609286,24.415771 162.341888,24.2815051 163.037824,23.9216327 C163.571876,23.6454412 163.913405,22.9449731 163.913405,22.1258136 L163.913405,21.6510157 L165.433891,21.6510157 L166.954364,21.6510157 L166.837409,22.6848029 C166.6892,23.9947817 166.434802,24.5954838 165.74295,25.2691753 C164.568156,26.4130689 161.411943,26.8835902 157.754078,26.4601114 L157.754078,26.4601114 Z M163.913405,16.1581434 C163.913405,14.8623029 163.522293,13.8922817 162.851806,13.5251646 C162.140774,13.1358668 158.086866,13.109888 157.349578,13.4899306 C156.50797,13.9237178 156.211725,14.504154 156.122516,15.8939199 L156.041657,17.1540795 L159.977531,17.1540795 L163.913405,17.1540795 L163.913405,16.1581434 Z M76.1405,19.9022072 L76.1405,13.3233668 L75.0579069,13.3233668 L73.975317,13.3233668 L73.975317,12.1574997 L73.975317,10.9916487 L75.0346793,10.9916487 L76.0940289,10.9916487 L76.1851966,9.11792527 C76.2353474,8.08736144 76.3684192,6.98189335 76.4809187,6.66127633 C76.7412537,5.91938271 77.3833721,5.22066995 78.1826164,4.80960612 C78.9793331,4.3998508 81.1884978,4.08290399 82.1954976,4.23392527 L82.9691335,4.34993591 L82.9691335,5.47458484 L82.9691335,6.59923378 L82.011458,6.53361676 C81.470538,6.49656357 80.7707816,6.56425506 80.4034811,6.68955293 C79.3869643,7.03586144 79.1513345,7.49482952 79.028284,9.36816995 L78.9216344,10.9916487 L81.0286623,10.9916487 L83.1356775,10.9916487 L83.1356775,12.1574997 L83.1356775,13.3233668 L81.0537792,13.3233668 L78.9718778,13.3233668 L78.9718778,19.9022072 L78.9718778,26.4810476 L77.5561873,26.4810476 L76.1405,26.4810476 L76.1405,19.9022072 Z M99.4857964,18.8612391 C98.4574106,14.6703668 97.6181834,11.1852444 97.6208579,11.1165636 C97.6234111,11.0478508 98.2577168,10.9916487 99.0301719,10.9916487 C100.222877,10.9916487 100.448042,11.0355955 100.523511,11.2830955 C100.649297,11.6956593 103.05258,22.2020902 103.285602,23.3581753 C103.391776,23.8848987 103.540949,24.3158455 103.617104,24.3158455 C103.693255,24.3158455 103.958706,23.4352178 104.206997,22.3588561 C104.45529,21.2825263 105.164988,18.3033029 105.784112,15.7383987 L106.909787,11.0749146 L108.888189,11.0294997 L110.866587,10.9841168 L111.938847,15.5264199 C112.528586,18.0246859 113.22435,21.0043242 113.485005,22.1478668 C113.745646,23.2913774 114.020671,24.2887497 114.096172,24.3642604 C114.171676,24.439771 114.401478,23.6915263 114.606846,22.7014944 C114.893696,21.3186859 116.50833,14.2494412 117.195825,11.3663295 C117.280166,11.0126806 117.368088,10.9916168 118.759798,10.9916168 L120.234413,10.9916168 L118.30005,18.7362923 L116.365688,26.4809838 L114.188894,26.4809838 L112.012097,26.4809838 L110.897688,21.6926008 C110.284766,19.0589838 109.628187,16.1921965 109.438638,15.3219731 C108.979848,13.2156221 108.965142,13.1740051 108.791541,13.4898987 C108.716025,13.6272923 108.564927,14.1894093 108.455769,14.7390157 C108.346618,15.288654 107.701436,18.1179412 107.022031,21.0263774 C106.34263,23.9347817 105.786755,26.3518561 105.786755,26.3976859 C105.786755,26.4435157 104.789747,26.4809838 103.571175,26.4809838 L101.355592,26.4809838 L99.4857964,18.8612391 Z M139.430255,18.7363242 L139.430255,10.9916487 L140.896365,10.9916487 L142.362478,10.9916487 L142.252218,11.9493189 C142.191584,12.4760423 142.166824,12.9361593 142.197194,12.9717763 C142.227545,13.0074253 142.593847,12.6568082 143.011161,12.1926699 C143.997451,11.0956593 144.8964,10.7410848 146.683952,10.7439891 C149.379992,10.7484572 150.509886,11.9311593 150.705734,14.9540902 L150.805098,16.487888 L149.38934,16.487888 L147.973563,16.487888 L147.955148,15.4057817 C147.934659,14.2058136 147.771907,13.7824625 147.182444,13.3962604 C146.709889,13.0866061 144.915208,13.0432657 144.173598,13.3235582 C143.454278,13.5954412 142.783791,14.2985902 142.594635,14.9794306 C142.501763,15.3138029 142.429668,17.947771 142.429151,21.0264412 L142.428193,26.4810476 L140.929227,26.4810476 L139.430259,26.4810476 L139.430259,18.7363242 L139.430255,18.7363242 Z" id="path4324" fill="#FFFFFF"></path>
        </g>
    </g>
</svg>